<?xml version="1.0" encoding="UTF-8" standalone="no"?>
<!DOCTYPE svg PUBLIC "-//W3C//DTD SVG 1.1//EN"
 "http://www.w3.org/Graphics/SVG/1.1/DTD/svg11.dtd">
<!-- Generated by graphviz version 13.1.0 (20250701.0955)
 -->
<!-- Title: sfa30_basic_deinit Pages: 1 -->
<svg width="270pt" height="66pt"
 viewBox="0.00 0.00 270.00 66.00" xmlns="http://www.w3.org/2000/svg" xmlns:xlink="http://www.w3.org/1999/xlink">
<g id="graph0" class="graph" transform="scale(1 1) rotate(0) translate(4 62)">
<title>sfa30_basic_deinit</title>
<!-- Node1 -->
<g id="Node000001" class="node">
<title>Node1</title>
<g id="a_Node000001"><a xlink:title="basic example deinit">
<polygon fill="#999999" stroke="#666666" points="97,-39 0,-39 0,-19 97,-19 97,-39"/>
<text xml:space="preserve" text-anchor="middle" x="48.5" y="-25.5" font-family="Helvetica,sans-Serif" font-size="10.00">sfa30_basic_deinit</text>
</a>
</g>
</g>
<!-- Node2 -->
<g id="Node000002" class="node">
<title>Node2</title>
<g id="a_Node000002"><a xlink:href="group__sfa30__basic__driver.html#gaac9fddecfd49527ba6ab8d28e62dc7f0" target="_top" xlink:title="close the chip">
<polygon fill="white" stroke="#666666" points="231.5,-58 163,-58 163,-38 231.5,-38 231.5,-58"/>
<text xml:space="preserve" text-anchor="middle" x="197.25" y="-44.5" font-family="Helvetica,sans-Serif" font-size="10.00">sfa30_deinit</text>
</a>
</g>
</g>
<!-- Node1&#45;&gt;Node2 -->
<g id="edge1_Node000001_Node000002" class="edge">
<title>Node1&#45;&gt;Node2</title>
<g id="a_edge1_Node000001_Node000002"><a xlink:title=" ">
<path fill="none" stroke="#63b8ff" d="M97.15,-35.17C114.72,-37.44 134.55,-40.01 151.83,-42.25"/>
<polygon fill="#63b8ff" stroke="#63b8ff" points="150.9,-45.66 161.27,-43.47 151.8,-38.72 150.9,-45.66"/>
</a>
</g>
</g>
<!-- Node3 -->
<g id="Node000003" class="node">
<title>Node3</title>
<g id="a_Node000003"><a xlink:href="group__sfa30__basic__driver.html#gac98be599a63181d2d6f640a4a22f3958" target="_top" xlink:title="stop the measurement">
<polygon fill="white" stroke="#666666" points="261.5,-20 133,-20 133,0 261.5,0 261.5,-20"/>
<text xml:space="preserve" text-anchor="middle" x="197.25" y="-6.5" font-family="Helvetica,sans-Serif" font-size="10.00">sfa30_stop_measurement</text>
</a>
</g>
</g>
<!-- Node1&#45;&gt;Node3 -->
<g id="edge2_Node000001_Node000003" class="edge">
<title>Node1&#45;&gt;Node3</title>
<g id="a_edge2_Node000001_Node000003"><a xlink:title=" ">
<path fill="none" stroke="#63b8ff" d="M97.15,-22.83C104.91,-21.83 113.12,-20.76 121.35,-19.7"/>
<polygon fill="#63b8ff" stroke="#63b8ff" points="121.59,-23.2 131.06,-18.44 120.69,-16.25 121.59,-23.2"/>
</a>
</g>
</g>
</g>
</svg>
