<?xml version="1.0" encoding="UTF-8" standalone="no"?>
<!DOCTYPE svg PUBLIC "-//W3C//DTD SVG 1.1//EN"
 "http://www.w3.org/Graphics/SVG/1.1/DTD/svg11.dtd">
<!-- Generated by graphviz version 13.1.0 (20250701.0955)
 -->
<!-- Title: sfa30_basic_init Pages: 1 -->
<svg width="261pt" height="644pt"
 viewBox="0.00 0.00 261.00 644.00" xmlns="http://www.w3.org/2000/svg" xmlns:xlink="http://www.w3.org/1999/xlink">
<g id="graph0" class="graph" transform="scale(1 1) rotate(0) translate(4 640)">
<title>sfa30_basic_init</title>
<!-- Node1 -->
<g id="Node000001" class="node">
<title>Node1</title>
<g id="a_Node000001"><a xlink:title="basic example init">
<polygon fill="#999999" stroke="#666666" points="86.5,-328 0,-328 0,-308 86.5,-308 86.5,-328"/>
<text xml:space="preserve" text-anchor="middle" x="43.25" y="-314.5" font-family="Helvetica,sans-Serif" font-size="10.00">sfa30_basic_init</text>
</a>
</g>
</g>
<!-- Node2 -->
<g id="Node000002" class="node">
<title>Node2</title>
<g id="a_Node000002"><a xlink:href="group__sfa30__basic__driver.html#gaac9fddecfd49527ba6ab8d28e62dc7f0" target="_top" xlink:title="close the chip">
<polygon fill="white" stroke="#666666" points="221.75,-636 153.25,-636 153.25,-616 221.75,-616 221.75,-636"/>
<text xml:space="preserve" text-anchor="middle" x="187.5" y="-622.5" font-family="Helvetica,sans-Serif" font-size="10.00">sfa30_deinit</text>
</a>
</g>
</g>
<!-- Node1&#45;&gt;Node2 -->
<g id="edge1_Node000001_Node000002" class="edge">
<title>Node1&#45;&gt;Node2</title>
<g id="a_edge1_Node000001_Node000002"><a xlink:title=" ">
<path fill="none" stroke="#63b8ff" d="M43.73,-328.4C42.24,-369.85 42.44,-524.98 122.5,-607 127.89,-612.52 134.79,-616.45 142.07,-619.25"/>
<polygon fill="#63b8ff" stroke="#63b8ff" points="140.82,-622.53 151.41,-622.14 142.89,-615.84 140.82,-622.53"/>
</a>
</g>
</g>
<!-- Node3 -->
<g id="Node000003" class="node">
<title>Node3</title>
<g id="a_Node000003"><a xlink:href="group__sfa30__basic__driver.html#gaa2ae27e42417febf98b498a4d56919fa" target="_top" xlink:title="initialize the chip">
<polygon fill="white" stroke="#666666" points="216.5,-598 158.5,-598 158.5,-578 216.5,-578 216.5,-598"/>
<text xml:space="preserve" text-anchor="middle" x="187.5" y="-584.5" font-family="Helvetica,sans-Serif" font-size="10.00">sfa30_init</text>
</a>
</g>
</g>
<!-- Node1&#45;&gt;Node3 -->
<g id="edge2_Node000001_Node000003" class="edge">
<title>Node1&#45;&gt;Node3</title>
<g id="a_edge2_Node000001_Node000003"><a xlink:title=" ">
<path fill="none" stroke="#63b8ff" d="M44.23,-328.33C44.73,-366.24 51.66,-499.12 122.5,-569 129.25,-575.65 138.21,-580 147.29,-582.82"/>
<polygon fill="#63b8ff" stroke="#63b8ff" points="146.26,-586.17 156.81,-585.21 147.96,-579.38 146.26,-586.17"/>
</a>
</g>
</g>
<!-- Node4 -->
<g id="Node000004" class="node">
<title>Node4</title>
<g id="a_Node000004"><a xlink:href="group__sfa30__interface__driver.html#ga3e9ac2f587cace913ed8ca5fc2d5a3ec" target="_top" xlink:title="interface print format data">
<polygon fill="white" stroke="#666666" points="244.62,-560 130.38,-560 130.38,-528 244.62,-528 244.62,-560"/>
<text xml:space="preserve" text-anchor="start" x="138.38" y="-546.5" font-family="Helvetica,sans-Serif" font-size="10.00">sfa30_interface_debug</text>
<text xml:space="preserve" text-anchor="middle" x="187.5" y="-534.5" font-family="Helvetica,sans-Serif" font-size="10.00">_print</text>
</a>
</g>
</g>
<!-- Node1&#45;&gt;Node4 -->
<g id="edge3_Node000001_Node000004" class="edge">
<title>Node1&#45;&gt;Node4</title>
<g id="a_edge3_Node000001_Node000004"><a xlink:title=" ">
<path fill="none" stroke="#63b8ff" d="M45.36,-328.33C49.39,-360.89 66.13,-462.57 122.5,-519 123.12,-519.62 123.75,-520.22 124.4,-520.81"/>
<polygon fill="#63b8ff" stroke="#63b8ff" points="122.27,-523.58 132.38,-526.75 126.45,-517.97 122.27,-523.58"/>
</a>
</g>
</g>
<!-- Node5 -->
<g id="Node000005" class="node">
<title>Node5</title>
<g id="a_Node000005"><a xlink:href="group__sfa30__interface__driver.html#ga2a2f6a51606b91f14ba223cc1a86fa96" target="_top" xlink:title="interface delay ms">
<polygon fill="white" stroke="#666666" points="252.5,-510 122.5,-510 122.5,-490 252.5,-490 252.5,-510"/>
<text xml:space="preserve" text-anchor="middle" x="187.5" y="-496.5" font-family="Helvetica,sans-Serif" font-size="10.00">sfa30_interface_delay_ms</text>
</a>
</g>
</g>
<!-- Node1&#45;&gt;Node5 -->
<g id="edge4_Node000001_Node000005" class="edge">
<title>Node1&#45;&gt;Node5</title>
<g id="a_edge4_Node000001_Node000005"><a xlink:title=" ">
<path fill="none" stroke="#63b8ff" d="M46.15,-328.16C52.01,-356.73 72.57,-438.44 122.5,-481 123.77,-482.08 125.1,-483.1 126.47,-484.06"/>
<polygon fill="#63b8ff" stroke="#63b8ff" points="124.42,-486.92 134.83,-488.85 127.9,-480.84 124.42,-486.92"/>
</a>
</g>
</g>
<!-- Node6 -->
<g id="Node000006" class="node">
<title>Node6</title>
<g id="a_Node000006"><a xlink:href="group__sfa30__interface__driver.html#ga8e6130247e9e8600c624c1524521daaa" target="_top" xlink:title="interface iic bus deinit">
<polygon fill="white" stroke="#666666" points="236.38,-472 138.62,-472 138.62,-440 236.38,-440 236.38,-472"/>
<text xml:space="preserve" text-anchor="start" x="146.62" y="-458.5" font-family="Helvetica,sans-Serif" font-size="10.00">sfa30_interface_iic</text>
<text xml:space="preserve" text-anchor="middle" x="187.5" y="-446.5" font-family="Helvetica,sans-Serif" font-size="10.00">_deinit</text>
</a>
</g>
</g>
<!-- Node1&#45;&gt;Node6 -->
<g id="edge5_Node000001_Node000006" class="edge">
<title>Node1&#45;&gt;Node6</title>
<g id="a_edge5_Node000001_Node000006"><a xlink:title=" ">
<path fill="none" stroke="#63b8ff" d="M48.77,-328.26C58.89,-350.13 85.43,-401.71 122.5,-431 124.44,-432.53 126.48,-433.98 128.6,-435.35"/>
<polygon fill="#63b8ff" stroke="#63b8ff" points="126.55,-438.21 136.97,-440.09 130,-432.12 126.55,-438.21"/>
</a>
</g>
</g>
<!-- Node7 -->
<g id="Node000007" class="node">
<title>Node7</title>
<g id="a_Node000007"><a xlink:href="group__sfa30__interface__driver.html#ga51c3f7659ea70d898deef273da26d4df" target="_top" xlink:title="interface iic bus init">
<polygon fill="white" stroke="#666666" points="245.38,-422 129.62,-422 129.62,-402 245.38,-402 245.38,-422"/>
<text xml:space="preserve" text-anchor="middle" x="187.5" y="-408.5" font-family="Helvetica,sans-Serif" font-size="10.00">sfa30_interface_iic_init</text>
</a>
</g>
</g>
<!-- Node1&#45;&gt;Node7 -->
<g id="edge6_Node000001_Node000007" class="edge">
<title>Node1&#45;&gt;Node7</title>
<g id="a_edge6_Node000001_Node000007"><a xlink:title=" ">
<path fill="none" stroke="#63b8ff" d="M52.23,-328.33C65.24,-344.47 92.56,-375.6 122.5,-393 125.13,-394.53 127.9,-395.95 130.75,-397.26"/>
<polygon fill="#63b8ff" stroke="#63b8ff" points="129.31,-400.45 139.9,-400.98 131.95,-393.97 129.31,-400.45"/>
</a>
</g>
</g>
<!-- Node8 -->
<g id="Node000008" class="node">
<title>Node8</title>
<g id="a_Node000008"><a xlink:href="group__sfa30__interface__driver.html#ga3bb5d88a9b42d56597c23cc28695b96f" target="_top" xlink:title="interface iic bus read">
<polygon fill="white" stroke="#666666" points="236.38,-384 138.62,-384 138.62,-352 236.38,-352 236.38,-384"/>
<text xml:space="preserve" text-anchor="start" x="146.62" y="-370.5" font-family="Helvetica,sans-Serif" font-size="10.00">sfa30_interface_iic</text>
<text xml:space="preserve" text-anchor="middle" x="187.5" y="-358.5" font-family="Helvetica,sans-Serif" font-size="10.00">_read_cmd</text>
</a>
</g>
</g>
<!-- Node1&#45;&gt;Node8 -->
<g id="edge7_Node000001_Node000008" class="edge">
<title>Node1&#45;&gt;Node8</title>
<g id="a_edge7_Node000001_Node000008"><a xlink:title=" ">
<path fill="none" stroke="#63b8ff" d="M74.07,-328.48C90.01,-334.09 110.19,-341.18 129.04,-347.8"/>
<polygon fill="#63b8ff" stroke="#63b8ff" points="127.62,-351.01 138.21,-351.03 129.94,-344.41 127.62,-351.01"/>
</a>
</g>
</g>
<!-- Node9 -->
<g id="Node000009" class="node">
<title>Node9</title>
<g id="a_Node000009"><a xlink:href="group__sfa30__interface__driver.html#gaa4abac6936b18419a485b6beccd1623a" target="_top" xlink:title="interface iic bus write">
<polygon fill="white" stroke="#666666" points="236.38,-334 138.62,-334 138.62,-302 236.38,-302 236.38,-334"/>
<text xml:space="preserve" text-anchor="start" x="146.62" y="-320.5" font-family="Helvetica,sans-Serif" font-size="10.00">sfa30_interface_iic</text>
<text xml:space="preserve" text-anchor="middle" x="187.5" y="-308.5" font-family="Helvetica,sans-Serif" font-size="10.00">_write_cmd</text>
</a>
</g>
</g>
<!-- Node1&#45;&gt;Node9 -->
<g id="edge8_Node000001_Node000009" class="edge">
<title>Node1&#45;&gt;Node9</title>
<g id="a_edge8_Node000001_Node000009"><a xlink:title=" ">
<path fill="none" stroke="#63b8ff" d="M86.93,-318C99.59,-318 113.69,-318 127.2,-318"/>
<polygon fill="#63b8ff" stroke="#63b8ff" points="126.86,-321.5 136.85,-318 126.85,-314.5 126.86,-321.5"/>
</a>
</g>
</g>
<!-- Node10 -->
<g id="Node000010" class="node">
<title>Node10</title>
<g id="a_Node000010"><a xlink:href="group__sfa30__interface__driver.html#ga7e9d13240b314ed49033ba92737395d2" target="_top" xlink:title="interface uart deinit">
<polygon fill="white" stroke="#666666" points="239.75,-284 135.25,-284 135.25,-252 239.75,-252 239.75,-284"/>
<text xml:space="preserve" text-anchor="start" x="143.25" y="-270.5" font-family="Helvetica,sans-Serif" font-size="10.00">sfa30_interface_uart</text>
<text xml:space="preserve" text-anchor="middle" x="187.5" y="-258.5" font-family="Helvetica,sans-Serif" font-size="10.00">_deinit</text>
</a>
</g>
</g>
<!-- Node1&#45;&gt;Node10 -->
<g id="edge9_Node000001_Node000010" class="edge">
<title>Node1&#45;&gt;Node10</title>
<g id="a_edge9_Node000001_Node000010"><a xlink:title=" ">
<path fill="none" stroke="#63b8ff" d="M74.07,-307.52C90.01,-301.91 110.19,-294.82 129.04,-288.2"/>
<polygon fill="#63b8ff" stroke="#63b8ff" points="129.94,-291.59 138.21,-284.97 127.62,-284.99 129.94,-291.59"/>
</a>
</g>
</g>
<!-- Node11 -->
<g id="Node000011" class="node">
<title>Node11</title>
<g id="a_Node000011"><a xlink:href="group__sfa30__interface__driver.html#ga0058ebb971d5e2a24ce8e105603c6ca0" target="_top" xlink:title="interface uart flush">
<polygon fill="white" stroke="#666666" points="239.75,-234 135.25,-234 135.25,-202 239.75,-202 239.75,-234"/>
<text xml:space="preserve" text-anchor="start" x="143.25" y="-220.5" font-family="Helvetica,sans-Serif" font-size="10.00">sfa30_interface_uart</text>
<text xml:space="preserve" text-anchor="middle" x="187.5" y="-208.5" font-family="Helvetica,sans-Serif" font-size="10.00">_flush</text>
</a>
</g>
</g>
<!-- Node1&#45;&gt;Node11 -->
<g id="edge10_Node000001_Node000011" class="edge">
<title>Node1&#45;&gt;Node11</title>
<g id="a_edge10_Node000001_Node000011"><a xlink:title=" ">
<path fill="none" stroke="#63b8ff" d="M52.63,-307.7C65.96,-291.89 93.48,-261.53 122.5,-243 124.35,-241.82 126.26,-240.68 128.22,-239.58"/>
<polygon fill="#63b8ff" stroke="#63b8ff" points="129.64,-242.79 136.95,-235.12 126.45,-236.55 129.64,-242.79"/>
</a>
</g>
</g>
<!-- Node12 -->
<g id="Node000012" class="node">
<title>Node12</title>
<g id="a_Node000012"><a xlink:href="group__sfa30__interface__driver.html#ga75bea3cdff08a35a7ceaa02b8ad46ade" target="_top" xlink:title="interface uart init">
<polygon fill="white" stroke="#666666" points="248.75,-184 126.25,-184 126.25,-164 248.75,-164 248.75,-184"/>
<text xml:space="preserve" text-anchor="middle" x="187.5" y="-170.5" font-family="Helvetica,sans-Serif" font-size="10.00">sfa30_interface_uart_init</text>
</a>
</g>
</g>
<!-- Node1&#45;&gt;Node12 -->
<g id="edge11_Node000001_Node000012" class="edge">
<title>Node1&#45;&gt;Node12</title>
<g id="a_edge11_Node000001_Node000012"><a xlink:title=" ">
<path fill="none" stroke="#63b8ff" d="M47.73,-307.84C56.41,-284.03 81.33,-224.3 122.5,-193 124.05,-191.82 125.68,-190.71 127.36,-189.67"/>
<polygon fill="#63b8ff" stroke="#63b8ff" points="128.88,-192.83 136.16,-185.13 125.67,-186.61 128.88,-192.83"/>
</a>
</g>
</g>
<!-- Node13 -->
<g id="Node000013" class="node">
<title>Node13</title>
<g id="a_Node000013"><a xlink:href="group__sfa30__interface__driver.html#ga6bd1e74f78df111e0b890a7513110035" target="_top" xlink:title="interface uart read">
<polygon fill="white" stroke="#666666" points="251.75,-146 123.25,-146 123.25,-126 251.75,-126 251.75,-146"/>
<text xml:space="preserve" text-anchor="middle" x="187.5" y="-132.5" font-family="Helvetica,sans-Serif" font-size="10.00">sfa30_interface_uart_read</text>
</a>
</g>
</g>
<!-- Node1&#45;&gt;Node13 -->
<g id="edge12_Node000001_Node000013" class="edge">
<title>Node1&#45;&gt;Node13</title>
<g id="a_edge12_Node000001_Node000013"><a xlink:title=" ">
<path fill="none" stroke="#63b8ff" d="M46.15,-307.84C52.01,-279.27 72.57,-197.56 122.5,-155 123.77,-153.92 125.1,-152.9 126.47,-151.94"/>
<polygon fill="#63b8ff" stroke="#63b8ff" points="127.9,-155.16 134.83,-147.15 124.42,-149.08 127.9,-155.16"/>
</a>
</g>
</g>
<!-- Node14 -->
<g id="Node000014" class="node">
<title>Node14</title>
<g id="a_Node000014"><a xlink:href="group__sfa30__interface__driver.html#gac472acf8984bbf8e984b8ba51bcaea0c" target="_top" xlink:title="interface uart write">
<polygon fill="white" stroke="#666666" points="239.75,-108 135.25,-108 135.25,-76 239.75,-76 239.75,-108"/>
<text xml:space="preserve" text-anchor="start" x="143.25" y="-94.5" font-family="Helvetica,sans-Serif" font-size="10.00">sfa30_interface_uart</text>
<text xml:space="preserve" text-anchor="middle" x="187.5" y="-82.5" font-family="Helvetica,sans-Serif" font-size="10.00">_write</text>
</a>
</g>
</g>
<!-- Node1&#45;&gt;Node14 -->
<g id="edge13_Node000001_Node000014" class="edge">
<title>Node1&#45;&gt;Node14</title>
<g id="a_edge13_Node000001_Node000014"><a xlink:title=" ">
<path fill="none" stroke="#63b8ff" d="M45.36,-307.67C49.39,-275.11 66.13,-173.43 122.5,-117 123.52,-115.98 124.59,-115 125.69,-114.06"/>
<polygon fill="#63b8ff" stroke="#63b8ff" points="127.46,-117.09 133.6,-108.46 123.42,-111.38 127.46,-117.09"/>
</a>
</g>
</g>
<!-- Node15 -->
<g id="Node000015" class="node">
<title>Node15</title>
<g id="a_Node000015"><a xlink:href="group__sfa30__basic__driver.html#ga6dd2b69db9acbdbc61f0ac7b9add0179" target="_top" xlink:title="set the chip interface">
<polygon fill="white" stroke="#666666" points="238.25,-58 136.75,-58 136.75,-38 238.25,-38 238.25,-58"/>
<text xml:space="preserve" text-anchor="middle" x="187.5" y="-44.5" font-family="Helvetica,sans-Serif" font-size="10.00">sfa30_set_interface</text>
</a>
</g>
</g>
<!-- Node1&#45;&gt;Node15 -->
<g id="edge14_Node000001_Node000015" class="edge">
<title>Node1&#45;&gt;Node15</title>
<g id="a_edge14_Node000001_Node000015"><a xlink:title=" ">
<path fill="none" stroke="#63b8ff" d="M44.23,-307.67C44.73,-269.76 51.66,-136.88 122.5,-67 123.86,-65.66 125.31,-64.41 126.84,-63.25"/>
<polygon fill="#63b8ff" stroke="#63b8ff" points="128.24,-66.49 134.96,-58.3 124.6,-60.51 128.24,-66.49"/>
</a>
</g>
</g>
<!-- Node16 -->
<g id="Node000016" class="node">
<title>Node16</title>
<g id="a_Node000016"><a xlink:href="group__sfa30__basic__driver.html#gad15af3b1ba5e641a356ff07d8ba96c97" target="_top" xlink:title="start the measurement">
<polygon fill="white" stroke="#666666" points="252.12,-20 122.88,-20 122.88,0 252.12,0 252.12,-20"/>
<text xml:space="preserve" text-anchor="middle" x="187.5" y="-6.5" font-family="Helvetica,sans-Serif" font-size="10.00">sfa30_start_measurement</text>
</a>
</g>
</g>
<!-- Node1&#45;&gt;Node16 -->
<g id="edge15_Node000001_Node000016" class="edge">
<title>Node1&#45;&gt;Node16</title>
<g id="a_edge15_Node000001_Node000016"><a xlink:title=" ">
<path fill="none" stroke="#63b8ff" d="M43.73,-307.6C42.24,-266.15 42.44,-111.02 122.5,-29 123.23,-28.26 123.98,-27.54 124.76,-26.85"/>
<polygon fill="#63b8ff" stroke="#63b8ff" points="126.46,-29.94 132.68,-21.36 122.47,-24.18 126.46,-29.94"/>
</a>
</g>
</g>
</g>
</svg>
