<?xml version="1.0" encoding="UTF-8" standalone="no"?>
<!DOCTYPE svg PUBLIC "-//W3C//DTD SVG 1.1//EN"
 "http://www.w3.org/Graphics/SVG/1.1/DTD/svg11.dtd">
<!-- Generated by graphviz version 13.1.0 (20250701.0955)
 -->
<!-- Title: sfa30 driver function Pages: 1 -->
<svg width="273pt" height="266pt"
 viewBox="0.00 0.00 273.00 266.00" xmlns="http://www.w3.org/2000/svg" xmlns:xlink="http://www.w3.org/1999/xlink">
<g id="graph0" class="graph" transform="scale(1 1) rotate(0) translate(4 262)">
<title>sfa30 driver function</title>
<!-- Node3 -->
<g id="Node000003" class="node">
<title>Node3</title>
<g id="a_Node000003"><a xlink:href="group__sfa30__basic__driver.html" target="_top" xlink:title="sfa30 basic driver modules">
<polygon fill="white" stroke="#666666" points="249.12,-258 155.88,-258 155.88,-226 249.12,-226 249.12,-258"/>
<text xml:space="preserve" text-anchor="start" x="163.88" y="-244.5" font-family="Helvetica,sans-Serif" font-size="10.00">sfa30 basic driver</text>
<text xml:space="preserve" text-anchor="middle" x="202.5" y="-232.5" font-family="Helvetica,sans-Serif" font-size="10.00"> function</text>
</a>
</g>
</g>
<!-- Node1 -->
<g id="Node000001" class="node">
<title>Node1</title>
<g id="a_Node000001"><a xlink:title="sfa30 driver modules">
<polygon fill="#999999" stroke="#666666" points="104.5,-127 0,-127 0,-107 104.5,-107 104.5,-127"/>
<text xml:space="preserve" text-anchor="middle" x="52.25" y="-113.5" font-family="Helvetica,sans-Serif" font-size="10.00">sfa30 driver function</text>
</a>
</g>
</g>
<!-- Node1&#45;&gt;Node3 -->
<g id="edge2" class="edge">
<title>Node1&#45;&gt;Node3</title>
<path fill="none" stroke="black" d="M66.32,-136.89C81.74,-159.04 109.28,-194.66 140.5,-217 145.15,-220.33 150.32,-223.31 155.61,-225.96"/>
<polygon fill="black" stroke="black" points="69.29,-135.05 60.78,-128.74 63.5,-138.98 69.29,-135.05"/>
</g>
<!-- Node6 -->
<g id="Node000006" class="node">
<title>Node6</title>
<g id="a_Node000006"><a xlink:href="group__sfa30__example__driver.html" target="_top" xlink:title="sfa30 example driver modules">
<polygon fill="white" stroke="#666666" points="255.88,-208 149.12,-208 149.12,-176 255.88,-176 255.88,-208"/>
<text xml:space="preserve" text-anchor="start" x="157.12" y="-194.5" font-family="Helvetica,sans-Serif" font-size="10.00">sfa30 example driver</text>
<text xml:space="preserve" text-anchor="middle" x="202.5" y="-182.5" font-family="Helvetica,sans-Serif" font-size="10.00"> function</text>
</a>
</g>
</g>
<!-- Node1&#45;&gt;Node6 -->
<g id="edge5" class="edge">
<title>Node1&#45;&gt;Node6</title>
<path fill="none" stroke="black" d="M79.75,-133.4C96.79,-143.64 119.59,-156.78 140.5,-167 146.46,-169.92 152.86,-172.79 159.18,-175.5"/>
<polygon fill="black" stroke="black" points="81.6,-130.43 71.24,-128.23 77.97,-136.41 81.6,-130.43"/>
</g>
<!-- Node4 -->
<g id="Node000004" class="node">
<title>Node4</title>
<g id="a_Node000004"><a xlink:href="group__sfa30__extern__driver.html" target="_top" xlink:title="sfa30 extern driver modules">
<polygon fill="white" stroke="#666666" points="251,-158 154,-158 154,-126 251,-126 251,-158"/>
<text xml:space="preserve" text-anchor="start" x="162" y="-144.5" font-family="Helvetica,sans-Serif" font-size="10.00">sfa30 extern driver</text>
<text xml:space="preserve" text-anchor="middle" x="202.5" y="-132.5" font-family="Helvetica,sans-Serif" font-size="10.00"> function</text>
</a>
</g>
</g>
<!-- Node1&#45;&gt;Node4 -->
<g id="edge3" class="edge">
<title>Node1&#45;&gt;Node4</title>
<path fill="none" stroke="black" d="M115.68,-127.53C128.38,-129.67 141.55,-131.89 153.64,-133.93"/>
<polygon fill="black" stroke="black" points="116.62,-124.14 106.18,-125.93 115.46,-131.04 116.62,-124.14"/>
</g>
<!-- Node5 -->
<g id="Node000005" class="node">
<title>Node5</title>
<g id="a_Node000005"><a xlink:href="group__sfa30__interface__driver.html" target="_top" xlink:title="sfa30 interface driver modules">
<polygon fill="white" stroke="#666666" points="256.25,-108 148.75,-108 148.75,-76 256.25,-76 256.25,-108"/>
<text xml:space="preserve" text-anchor="start" x="156.75" y="-94.5" font-family="Helvetica,sans-Serif" font-size="10.00">sfa30 interface driver</text>
<text xml:space="preserve" text-anchor="middle" x="202.5" y="-82.5" font-family="Helvetica,sans-Serif" font-size="10.00"> function</text>
</a>
</g>
</g>
<!-- Node1&#45;&gt;Node5 -->
<g id="edge4" class="edge">
<title>Node1&#45;&gt;Node5</title>
<path fill="none" stroke="black" d="M115.82,-106.45C126.66,-104.62 137.84,-102.74 148.39,-100.96"/>
<polygon fill="black" stroke="black" points="115.46,-102.96 106.18,-108.07 116.62,-109.86 115.46,-102.96"/>
</g>
<!-- Node2 -->
<g id="Node000002" class="node">
<title>Node2</title>
<g id="a_Node000002"><a xlink:href="group__sfa30__link__driver.html" target="_top" xlink:title="sfa30 link driver modules">
<polygon fill="white" stroke="#666666" points="263.75,-58 141.25,-58 141.25,-38 263.75,-38 263.75,-58"/>
<text xml:space="preserve" text-anchor="middle" x="202.5" y="-44.5" font-family="Helvetica,sans-Serif" font-size="10.00">sfa30 link driver function</text>
</a>
</g>
</g>
<!-- Node1&#45;&gt;Node2 -->
<g id="edge1" class="edge">
<title>Node1&#45;&gt;Node2</title>
<path fill="none" stroke="black" d="M78.83,-100.36C95.82,-89.81 118.9,-76.42 140.5,-67 147.72,-63.85 155.63,-60.99 163.28,-58.49"/>
<polygon fill="black" stroke="black" points="76.97,-97.39 70.38,-105.69 80.7,-103.31 76.97,-97.39"/>
</g>
<!-- Node7 -->
<g id="Node000007" class="node">
<title>Node7</title>
<g id="a_Node000007"><a xlink:href="group__sfa30__test__driver.html" target="_top" xlink:title="sfa30 test driver modules">
<polygon fill="white" stroke="#666666" points="264.5,-20 140.5,-20 140.5,0 264.5,0 264.5,-20"/>
<text xml:space="preserve" text-anchor="middle" x="202.5" y="-6.5" font-family="Helvetica,sans-Serif" font-size="10.00">sfa30 test driver function</text>
</a>
</g>
</g>
<!-- Node1&#45;&gt;Node7 -->
<g id="edge6" class="edge">
<title>Node1&#45;&gt;Node7</title>
<path fill="none" stroke="black" d="M67.7,-97.64C83.5,-77.73 110.61,-47.15 140.5,-29 146.09,-25.6 152.35,-22.76 158.66,-20.4"/>
<polygon fill="black" stroke="black" points="64.96,-95.45 61.62,-105.5 70.5,-99.73 64.96,-95.45"/>
</g>
</g>
</svg>
